<svg width="1920" height="1080" viewBox="0 0 1920 1080" fill="none" xmlns="http://www.w3.org/2000/svg">
<mask id="mask0_67_132" style="mask-type:alpha" maskUnits="userSpaceOnUse" x="0" y="0" width="1920" height="1080">
<rect width="1920" height="1080" fill="#D9D9D9"/>
</mask>
<g mask="url(#mask0_67_132)">
<rect x="410.067" y="347.751" width="133.69" height="89.7095" stroke="black"/>
<line x1="435.222" y1="376.987" x2="518.601" y2="376.987" stroke="black"/>
<line x1="438.887" y1="404.475" x2="493.862" y2="404.475" stroke="black"/>
<path d="M409.59 472.803L409.591 438.467L439.398 438.467L409.59 472.803Z" stroke="#FBDF8E" stroke-width="0.5"/>
<circle cx="589.153" cy="446.207" r="8.66257" stroke="black"/>
<circle cx="520.434" cy="229.054" r="4.08129" stroke="black"/>
<path d="M372 283.486C384.494 286.022 395.589 288.874 406.676 280.438C410.963 277.176 414.398 272.602 415.123 267.164C415.323 265.667 414.582 261.731 411.916 264.243C409.288 266.718 409.251 270.997 410.519 274.087C412.936 279.98 417.282 282.934 423.792 283.359C441.604 284.523 449.019 266.514 463.359 260.369C473.071 256.206 476.153 264.923 477.807 272.435C479.378 279.571 478.026 290.025 488.858 286.662C500.008 283.199 507.511 274.817 519.914 274.468C528.574 274.224 536.581 276.86 544.619 279.485" stroke="black" stroke-linecap="round"/>
<rect x="468.707" y="602.47" width="103.453" height="119.03" fill="white" stroke="black"/>
<path d="M498.444 696.148C525.286 672.842 532.939 656.885 533.261 622.848" stroke="black"/>
<path d="M523.596 631.749L533.261 622.586L541.005 631.749" stroke="black"/>
<path d="M593.617 608.804C598.801 610.737 604.139 612.243 609.733 611.508C617.983 610.426 626.789 606.794 630.669 599.034C630.991 598.391 634.752 590.014 631.694 589.918C624.434 589.692 626.7 599.517 628.903 603.265C633.374 610.872 642.738 612.11 650.362 609.022C659.496 605.323 665.217 597.669 670.752 589.984C673.48 586.197 679.811 579.582 685.211 582.635C688.098 584.266 688.67 588.234 690.183 590.834C692.073 594.081 694.427 594.26 697.249 596.243" stroke="black" stroke-linecap="round"/>
<path d="M1281.27 475.527C1281.27 476.702 1280.94 477.744 1280.42 478.479C1279.91 479.216 1279.24 479.608 1278.57 479.608C1277.89 479.608 1277.22 479.216 1276.71 478.479C1276.19 477.744 1275.86 476.702 1275.86 475.527C1275.86 474.352 1276.19 473.309 1276.71 472.574C1277.22 471.837 1277.89 471.445 1278.57 471.445C1279.24 471.445 1279.91 471.837 1280.42 472.574C1280.94 473.309 1281.27 474.352 1281.27 475.527Z" stroke="black"/>
<circle cx="1660.65" cy="277.157" r="1.79064" stroke="black"/>
<rect x="1282.27" y="279.948" width="78.7144" height="56.7242" stroke="black"/>
<line x1="1296.43" y1="300.938" x2="1341.33" y2="300.938" stroke="black"/>
<line x1="1309.26" y1="318.347" x2="1341.33" y2="318.347" stroke="black"/>
<path d="M1291.24 192.35C1286.68 189.713 1282.5 186.61 1278.56 183.095C1274.59 179.562 1270.99 176.214 1268.36 171.562C1267.13 169.395 1266.16 167.004 1267.37 164.628C1269.08 161.262 1273.96 163.082 1274.74 166.126C1276.2 171.841 1270.68 178.217 1266.44 181.103C1259.26 185.992 1250.63 186.628 1242.24 185.071C1234.04 183.552 1228.12 180.58 1220.61 177.194C1215.78 175.015 1208.82 171.079 1203.21 170.634C1196.8 170.125 1192.05 172.601 1186.7 175.756C1182.19 178.42 1175.34 184.455 1170.02 185.94C1164.42 187.503 1159.3 186.074 1155.85 181.177C1149 171.445 1154.6 171.07 1150.25 160" stroke="black" stroke-linecap="round"/>
<path d="M1527.01 330.046C1536.07 333.604 1546.82 333.386 1554.66 327.035C1557.32 324.886 1559.89 322.192 1561.82 319.375C1563.31 317.196 1566.18 312.903 1565 310.077C1564.13 308.011 1561.16 308.594 1559.84 309.812C1557.29 312.175 1558.61 317.966 1559.43 320.772C1560.56 324.637 1562.55 328.692 1565.87 331.13C1570 334.166 1575.92 336.269 1580.87 334.166C1584.96 332.43 1588.05 329.814 1590.44 326.096C1593.37 321.529 1596.81 317.353 1599.69 312.75C1602.48 308.27 1605.77 303.312 1611.8 303.813C1614.48 304.036 1617.22 305.165 1619.04 307.162C1620.5 308.756 1621.08 310.929 1621.75 312.919C1623.08 316.854 1624.28 321.775 1627.87 324.337C1633.21 328.146 1637.29 323.238 1641.17 320.025C1647.32 314.926 1655.07 313.179 1662.92 312.775C1667.71 312.527 1673.51 312.355 1678.12 314.003" stroke="black" stroke-linecap="round"/>
<path d="M1371.15 719.333V518.757H1488.35V719.333H1371.15Z" fill="white" stroke="black"/>
<path d="M1418.93 446.816L1341.27 462.949C1339.52 463.283 1337.78 462.503 1336.96 461.057L1301.57 385.736C1299.59 382.286 1295.05 380.95 1291.44 382.731L1289.11 383.955L1325.79 472.294V472.406C1326.83 474.297 1329.16 475.299 1331.38 474.742L1425.92 451.155C1425.34 448.04 1422.19 446.148 1418.93 446.816Z" fill="#A4B4CB"/>
<path d="M1292.6 577.656C1292.6 577.656 1286.31 590.228 1281.54 593.01L1268.62 595.903C1262.56 596.571 1260.58 600.798 1260.58 600.798L1294.7 615.929L1311.12 585.333L1292.6 577.656Z" fill="black"/>
<path d="M1469.35 468.845C1469.35 468.845 1388.08 471.738 1350 477.301C1338.94 478.858 1329.4 485.534 1324.27 494.991L1279.45 577.768L1319.15 597.683L1365.14 518.133L1448.74 515.797L1469.35 468.845Z" fill="white" stroke="black" stroke-miterlimit="10" stroke-linecap="round" stroke-linejoin="round"/>
<path d="M1472.61 450.042C1471.56 453.38 1469.93 456.606 1467.72 459.388C1448.74 482.418 1409.27 454.27 1377.02 454.492C1372.59 454.492 1368.63 454.604 1367.7 455.939C1366.07 458.276 1364.21 461.502 1363.05 461.39C1361.76 461.279 1363.86 456.829 1365.02 453.38C1365.02 453.38 1361.07 462.726 1359.55 462.281C1357.81 461.613 1362.23 451.044 1362.23 451.044C1362.23 451.044 1356.52 461.947 1355.01 460.278C1353.5 458.61 1359.78 448.819 1359.78 448.819C1359.78 448.819 1353.96 457.497 1351.98 456.606C1350.47 455.939 1355.48 449.263 1360.6 444.146C1363.63 441.03 1367.59 438.917 1371.89 438.137C1376.09 437.358 1382.14 436.914 1390.87 437.471C1390.87 437.471 1423.48 440.919 1450.6 445.147L1461.08 398.641C1462.36 392.966 1466.9 388.294 1472.84 386.959C1477.5 385.957 1482.74 386.402 1486.23 391.632C1488.68 395.303 1489.03 399.976 1487.75 404.093L1472.61 450.042Z" fill="white" stroke="black" stroke-miterlimit="10" stroke-linecap="round" stroke-linejoin="round"/>
<path d="M1370.03 596.125C1370.03 596.125 1379 611.812 1378.53 617.153L1373.18 628.724C1370.15 633.731 1372.36 637.847 1372.36 637.847L1405.54 620.824L1389.83 589.783L1370.03 596.125Z" fill="black"/>
<path d="M1477.62 459.055C1477.62 459.055 1364.09 452.601 1331.38 482.085C1305.06 505.783 1363.16 607.696 1363.16 607.696L1404.5 591.007L1370.85 519.134L1467.49 517.911C1467.49 517.911 1506.73 507.229 1496.71 458.944H1477.62V459.055Z" fill="white" stroke="black" stroke-miterlimit="10" stroke-linecap="round" stroke-linejoin="round"/>
<path d="M1534.67 384.289C1534.67 384.289 1537.12 372.384 1523.03 367.6C1510.45 363.261 1509.29 350.911 1509.29 350.911C1509.29 350.911 1505.33 341.232 1493.92 341.899C1482.62 342.455 1488.33 324.209 1469 320.538C1466.09 319.981 1463.41 321.094 1461.08 322.985C1453.98 328.659 1452.82 338.784 1457.82 346.238L1484.02 384.4H1534.67V384.289Z" fill="black" stroke="black" stroke-miterlimit="10" stroke-linecap="round" stroke-linejoin="round"/>
<path d="M1461.9 394.525L1449.56 365.041L1460.38 350.466L1486.93 387.848L1461.9 394.525Z" fill="white" stroke="black" stroke-miterlimit="10" stroke-linecap="round" stroke-linejoin="round"/>
<path d="M1454.33 374.498L1459.8 366.265L1451.77 368.379L1454.33 374.498Z" fill="black" stroke="black" stroke-miterlimit="10" stroke-linecap="round" stroke-linejoin="round"/>
<path d="M1481.23 330.217C1487.86 342.455 1476.34 360.813 1462.71 367.489C1449.09 374.275 1438.15 369.825 1433.02 356.919C1428.25 344.903 1430.81 326.879 1444.43 320.204C1458.17 313.417 1474.59 317.867 1481.23 330.217Z" fill="white" stroke="black" stroke-miterlimit="10" stroke-linecap="round" stroke-linejoin="round"/>
<path d="M1482.62 333.666C1478.32 320.649 1464.58 314.307 1449.79 318.201C1438.15 321.316 1430.58 332.108 1429.88 343.123C1429.99 343.123 1439.31 342.901 1443.27 333.11C1443.27 333.11 1444.32 348.909 1461.78 345.793L1469.47 363.15C1479.71 358.588 1487.4 348.018 1482.62 333.666Z" fill="black" stroke="black" stroke-miterlimit="10" stroke-linecap="round" stroke-linejoin="round"/>
<path d="M1446.53 361.258C1446.53 361.258 1450.25 361.036 1450.84 357.03L1446.53 361.258Z" fill="white"/>
<path d="M1446.53 361.258C1446.53 361.258 1450.25 361.036 1450.84 357.03" stroke="black" stroke-miterlimit="10" stroke-linecap="round" stroke-linejoin="round"/>
<path d="M1463.53 357.698C1465.16 357.253 1466.79 356.14 1467.84 354.582C1469.93 351.356 1469.35 347.35 1466.56 345.57C1464.58 344.347 1462.6 344.792 1460.73 346.238" fill="white"/>
<path d="M1463.53 357.698C1465.16 357.253 1466.79 356.14 1467.84 354.582C1469.93 351.356 1469.35 347.35 1466.56 345.57C1464.58 344.347 1462.6 344.792 1460.73 346.238" stroke="black" stroke-miterlimit="10" stroke-linecap="round" stroke-linejoin="round"/>
<path d="M1461.32 353.581C1461.32 353.581 1462.13 350.466 1464.93 351.022L1461.32 353.581Z" fill="white"/>
<path d="M1461.32 353.581C1461.32 353.581 1462.13 350.466 1464.93 351.022" stroke="black" stroke-miterlimit="10" stroke-linecap="round" stroke-linejoin="round"/>
<path d="M1480.18 325.655C1485.13 325.655 1489.14 321.82 1489.14 317.089C1489.14 312.357 1485.13 308.522 1480.18 308.522C1475.23 308.522 1471.21 312.357 1471.21 317.089C1471.21 321.82 1475.23 325.655 1480.18 325.655Z" fill="black" stroke="black" stroke-miterlimit="10" stroke-linecap="round" stroke-linejoin="round"/>
<path d="M1455.73 385.512L1482.04 376.5C1482.04 376.5 1513.6 426.455 1514.64 459.722C1514.64 459.722 1477.5 459.055 1445.6 458.721L1455.73 385.512Z" fill="black"/>
<mask id="mask1_67_132" style="mask-type:luminance" maskUnits="userSpaceOnUse" x="1445" y="376" width="70" height="84">
<path d="M1455.73 385.512L1482.04 376.5C1482.04 376.5 1513.6 426.455 1514.64 459.722C1514.64 459.722 1477.5 459.055 1445.6 458.721L1455.73 385.512Z" fill="white"/>
</mask>
<g mask="url(#mask1_67_132)">
<path d="M1462.25 400.087H1472.73" stroke="white" stroke-miterlimit="10" stroke-linecap="round" stroke-linejoin="round"/>
<path d="M1467.49 389.963L1477.38 386.068" stroke="white" stroke-miterlimit="10" stroke-linecap="round" stroke-linejoin="round"/>
<path d="M1484.14 389.073V400.087" stroke="white" stroke-miterlimit="10" stroke-linecap="round" stroke-linejoin="round"/>
<path d="M1479.01 413.439L1486 406.541" stroke="white" stroke-miterlimit="10" stroke-linecap="round" stroke-linejoin="round"/>
<path d="M1465.04 412.103L1463.88 420.337" stroke="white" stroke-miterlimit="10" stroke-linecap="round" stroke-linejoin="round"/>
<path d="M1474.01 423.562L1484.14 425.455" stroke="white" stroke-miterlimit="10" stroke-linecap="round" stroke-linejoin="round"/>
<path d="M1492.52 424.453L1499.27 418" stroke="white" stroke-miterlimit="10" stroke-linecap="round" stroke-linejoin="round"/>
<path d="M1479.01 433.019L1486 438.249" stroke="white" stroke-miterlimit="10" stroke-linecap="round" stroke-linejoin="round"/>
<path d="M1486 449.487H1496.6" stroke="white" stroke-miterlimit="10" stroke-linecap="round" stroke-linejoin="round"/>
<path d="M1491.36 439.362L1501.14 435.467" stroke="white" stroke-miterlimit="10" stroke-linecap="round" stroke-linejoin="round"/>
<path d="M1507.89 438.471V449.486" stroke="white" stroke-miterlimit="10" stroke-linecap="round" stroke-linejoin="round"/>
<path d="M1502.88 462.837L1509.87 455.939" stroke="white" stroke-miterlimit="10" stroke-linecap="round" stroke-linejoin="round"/>
<path d="M1438.38 428.458H1448.97" stroke="white" stroke-miterlimit="10" stroke-linecap="round" stroke-linejoin="round"/>
<path d="M1443.73 418.334L1453.51 414.439" stroke="white" stroke-miterlimit="10" stroke-linecap="round" stroke-linejoin="round"/>
<path d="M1455.26 441.81L1462.25 434.912" stroke="white" stroke-miterlimit="10" stroke-linecap="round" stroke-linejoin="round"/>
<path d="M1450.25 451.933L1460.27 453.826" stroke="white" stroke-miterlimit="10" stroke-linecap="round" stroke-linejoin="round"/>
<path d="M1468.77 452.824L1475.52 446.482" stroke="white" stroke-miterlimit="10" stroke-linecap="round" stroke-linejoin="round"/>
</g>
<path d="M1442.8 464.061C1440.71 466.954 1438.15 469.513 1435 471.515C1409.39 487.759 1381.21 449.153 1350.47 439.696C1346.28 438.36 1342.44 437.248 1341.16 438.249C1338.83 439.917 1336.03 442.476 1334.87 442.032C1333.59 441.476 1337.08 437.915 1339.29 435.023C1339.29 435.023 1332.42 442.699 1331.26 441.81C1329.75 440.697 1337.55 431.907 1337.55 431.907C1337.55 431.907 1328.58 440.585 1327.77 438.471C1326.95 436.469 1336.03 429.014 1336.03 429.014C1336.03 429.014 1327.65 435.467 1326.14 434.133C1324.97 433.019 1331.84 428.235 1338.36 424.787C1342.2 422.784 1346.74 421.894 1351.05 422.45C1355.24 423.007 1361.18 424.342 1369.33 427.569C1369.33 427.569 1399.14 440.585 1423.48 452.824L1448.62 411.88C1451.77 406.875 1457.59 403.759 1463.64 404.316C1468.42 404.76 1473.31 406.762 1474.82 412.771C1475.99 416.998 1474.82 421.449 1472.14 425.009L1442.8 464.061Z" fill="white" stroke="black" stroke-miterlimit="10" stroke-linecap="round" stroke-linejoin="round"/>
<path d="M1424.41 441.81L1453.63 461.503C1453.63 461.503 1500.2 405.428 1478.67 391.966C1458.41 379.171 1424.41 441.81 1424.41 441.81Z" fill="black" stroke="black" stroke-miterlimit="10" stroke-linecap="round" stroke-linejoin="round"/>
<mask id="mask2_67_132" style="mask-type:luminance" maskUnits="userSpaceOnUse" x="1424" y="390" width="61" height="72">
<path d="M1424.41 441.81L1453.63 461.503C1453.63 461.503 1500.2 405.428 1478.67 391.966C1458.41 379.171 1424.41 441.81 1424.41 441.81Z" fill="white"/>
</mask>
<g mask="url(#mask2_67_132)">
<path d="M1462.25 400.088H1472.73" stroke="white" stroke-miterlimit="10" stroke-linecap="round" stroke-linejoin="round"/>
<path d="M1467.49 389.963L1477.38 386.07" stroke="white" stroke-miterlimit="10" stroke-linecap="round" stroke-linejoin="round"/>
<path d="M1484.14 389.073V400.088" stroke="white" stroke-miterlimit="10" stroke-linecap="round" stroke-linejoin="round"/>
<path d="M1479.01 413.439L1486 406.541" stroke="white" stroke-miterlimit="10" stroke-linecap="round" stroke-linejoin="round"/>
<path d="M1465.04 412.104L1463.88 420.337" stroke="white" stroke-miterlimit="10" stroke-linecap="round" stroke-linejoin="round"/>
<path d="M1474.01 423.562L1484.14 425.455" stroke="white" stroke-miterlimit="10" stroke-linecap="round" stroke-linejoin="round"/>
<path d="M1479.01 433.02L1486 438.249" stroke="white" stroke-miterlimit="10" stroke-linecap="round" stroke-linejoin="round"/>
<path d="M1438.38 428.459H1448.97" stroke="white" stroke-miterlimit="10" stroke-linecap="round" stroke-linejoin="round"/>
<path d="M1443.73 418.334L1453.51 414.439" stroke="white" stroke-miterlimit="10" stroke-linecap="round" stroke-linejoin="round"/>
<path d="M1455.26 441.81L1462.25 434.912" stroke="white" stroke-miterlimit="10" stroke-linecap="round" stroke-linejoin="round"/>
<path d="M1441.29 440.475L1440.12 448.708" stroke="white" stroke-miterlimit="10" stroke-linecap="round" stroke-linejoin="round"/>
<path d="M1450.25 451.934L1460.27 453.826" stroke="white" stroke-miterlimit="10" stroke-linecap="round" stroke-linejoin="round"/>
<path d="M1468.77 452.824L1475.52 446.482" stroke="white" stroke-miterlimit="10" stroke-linecap="round" stroke-linejoin="round"/>
<path d="M1455.26 461.391L1462.25 466.621" stroke="white" stroke-miterlimit="10" stroke-linecap="round" stroke-linejoin="round"/>
</g>
<line x1="175" y1="721.5" x2="1745" y2="721.5" stroke="#C0BDB5"/>
</g>
</svg>
